<svg id="Layer_1" data-name="Layer 1" xmlns="http://www.w3.org/2000/svg" viewBox="0 0 110.41 112.67"><defs><style>.cls-1{fill:#74c0eb;}.cls-2{fill:#231f20;}.cls-3{fill:#008ccf;}</style></defs><title>Kanister logo</title><path class="cls-1" d="M92,52.67a36.68,36.68,0,0,0-8.74-20.21l-.58-.65a36.6,36.6,0,1,0-1.21,50.49c.6-.6,1.16-1.21,1.71-1.84a36.68,36.68,0,0,0,8.71-19.36c0-.31.07-.61.1-.92s0-.4.06-.6q.14-1.55.14-3.14A36.88,36.88,0,0,0,92,52.67ZM55.46,27.73A7.34,7.34,0,1,1,48.1,35,7.24,7.24,0,0,1,55.46,27.73ZM27.45,50a7.32,7.32,0,1,1,7.34,7.36A7.24,7.24,0,0,1,27.45,50ZM42.9,80.68a7.34,7.34,0,1,1,7.3-7.27A7.28,7.28,0,0,1,42.9,80.68ZM55.47,62A5.47,5.47,0,0,1,50,56.62a5.44,5.44,0,0,1,10.87-.12A5.52,5.52,0,0,1,55.47,62ZM67.65,80.68a7.34,7.34,0,1,1,7.29-7.27A7.29,7.29,0,0,1,67.65,80.68Zm8.6-23.36A7.34,7.34,0,1,1,83.55,50,7.28,7.28,0,0,1,76.25,57.32Z"/><path class="cls-3" d="M110.5,56.41A54.65,54.65,0,0,1,97.61,91.75L89,83.14A42.79,42.79,0,0,0,89.27,30L97.9,21.4A54.69,54.69,0,0,1,110.5,56.41Z"/><path class="cls-3" d="M90.92,14.38,82.31,23a42.8,42.8,0,0,0-53.11-.28l-8.62-8.62a54.9,54.9,0,0,1,70.34.29Z"/><path class="cls-3" d="M12.78,56.41a42.6,42.6,0,0,0,9.1,26.38l-8.62,8.62a54.91,54.91,0,0,1,.29-70.35l8.61,8.61A42.57,42.57,0,0,0,12.78,56.41Z"/><path class="cls-3" d="M90.58,98.73a54.92,54.92,0,0,1-70.36-.29l8.61-8.61A42.8,42.8,0,0,0,82,90.1Z"/></svg>