<svg id="Layer_1" data-name="Layer 1" xmlns="http://www.w3.org/2000/svg" viewBox="0 0 110.41 138.67"><defs><style>.cls-1{fill:#74c0eb;}.cls-2{fill:#231f20;}.cls-3{fill:#008ccf;}</style></defs><title>kanister logo sketches</title><path class="cls-1" d="M92,52.67a36.68,36.68,0,0,0-8.74-20.21l-.58-.65a36.6,36.6,0,1,0-1.21,50.49c.6-.6,1.16-1.21,1.71-1.84a36.68,36.68,0,0,0,8.71-19.36c0-.31.07-.61.1-.92s0-.4.06-.6q.14-1.55.14-3.14A36.88,36.88,0,0,0,92,52.67ZM55.46,27.73A7.34,7.34,0,1,1,48.1,35,7.24,7.24,0,0,1,55.46,27.73ZM27.45,50a7.32,7.32,0,1,1,7.34,7.36A7.24,7.24,0,0,1,27.45,50ZM42.9,80.68a7.34,7.34,0,1,1,7.3-7.27A7.28,7.28,0,0,1,42.9,80.68ZM55.47,62A5.47,5.47,0,0,1,50,56.62a5.44,5.44,0,0,1,10.87-.12A5.52,5.52,0,0,1,55.47,62ZM67.65,80.68a7.34,7.34,0,1,1,7.29-7.27A7.29,7.29,0,0,1,67.65,80.68Zm8.6-23.36A7.34,7.34,0,1,1,83.55,50,7.28,7.28,0,0,1,76.25,57.32Z"/><path class="cls-2" d="M12.36,136.21a.78.78,0,0,1-.76.8.8.8,0,0,1-.6-.24L5.72,131l-1.34,1.42v3.78a.84.84,0,0,1-.84.82.82.82,0,0,1-.82-.82V124.33a.82.82,0,0,1,.82-.82.84.84,0,0,1,.84.82v6.18l6.12-6.74a.69.69,0,0,1,.58-.26.79.79,0,0,1,.8.76.81.81,0,0,1-.22.54L6.82,130l5.32,5.72A.76.76,0,0,1,12.36,136.21Z"/><path class="cls-2" d="M28.28,136.15a.85.85,0,0,1-1.64.32l-1-2.5H18.82l-1,2.5a.81.81,0,0,1-.78.54.85.85,0,0,1-.86-.84,1.19,1.19,0,0,1,.08-.34l4.6-11.4a1.47,1.47,0,0,1,1.36-.92,1.42,1.42,0,0,1,1.34.92l4.62,11.4A1.86,1.86,0,0,1,28.28,136.15Zm-3.16-3.66-2.86-7.42-2.86,7.42Z"/><path class="cls-2" d="M42.08,136.59l-7.52-10.42v10a.84.84,0,0,1-.82.82.83.83,0,0,1-.84-.82v-11.6A1.09,1.09,0,0,1,34,123.51a1.06,1.06,0,0,1,.88.44l7.42,10.18v-9.8a.84.84,0,0,1,.82-.82.83.83,0,0,1,.84.82V136a1,1,0,0,1-1.86.6Z"/><path class="cls-2" d="M49.56,136.19V124.33a.83.83,0,0,1,.84-.82.84.84,0,0,1,.82.82v11.86a.84.84,0,0,1-.82.82A.83.83,0,0,1,49.56,136.19Z"/><path class="cls-2" d="M56.26,134.93a.81.81,0,0,1,.8-.82.73.73,0,0,1,.5.18,5.51,5.51,0,0,0,3.66,1.4c2.38,0,3.14-1.28,3.14-2.3,0-1.6-1.62-2-3.38-2.52-2.14-.56-4.52-1.16-4.52-3.78,0-2.2,2-3.7,4.7-3.7a6.36,6.36,0,0,1,4.12,1.38.75.75,0,0,1,.34.64.81.81,0,0,1-.78.8.74.74,0,0,1-.48-.18A5.14,5.14,0,0,0,61,124.87c-1.72,0-2.86.86-2.86,2.12s1.54,1.74,3.24,2.2c2.18.58,4.66,1.26,4.66,4.06,0,1.94-1.32,3.92-4.92,3.92a6.75,6.75,0,0,1-4.6-1.62A.84.84,0,0,1,56.26,134.93Z"/><path class="cls-2" d="M74.24,136.19V125.07H70.68a.74.74,0,0,1,0-1.48h8.8a.74.74,0,0,1,0,1.48H75.9v11.12a.82.82,0,0,1-.82.82A.84.84,0,0,1,74.24,136.19Z"/><path class="cls-2" d="M84.84,136.05V124.47a.8.8,0,0,1,.88-.88h7.2a.74.74,0,1,1,0,1.48H86.5v4.3h6.28a.74.74,0,1,1,0,1.48H86.5v4.6h6.42a.74.74,0,1,1,0,1.48h-7.2A.8.8,0,0,1,84.84,136.05Z"/><path class="cls-2" d="M108.3,136.25a.81.81,0,0,1-.8.76.85.85,0,0,1-.7-.34l-3.48-5h-2.94v4.56a.83.83,0,0,1-1.66,0V124.47a.8.8,0,0,1,.88-.88h4.48a3.89,3.89,0,0,1,4.18,4,3.67,3.67,0,0,1-3.18,3.84l3.06,4.28A.84.84,0,0,1,108.3,136.25Zm-7.92-6.08h3.5a2.55,2.55,0,1,0,0-5.1h-3.5Z"/><path class="cls-3" d="M110.5,56.41A54.65,54.65,0,0,1,97.61,91.75L89,83.14A42.79,42.79,0,0,0,89.27,30L97.9,21.4A54.69,54.69,0,0,1,110.5,56.41Z"/><path class="cls-3" d="M90.92,14.38,82.31,23a42.8,42.8,0,0,0-53.11-.28l-8.62-8.62a54.9,54.9,0,0,1,70.34.29Z"/><path class="cls-3" d="M12.78,56.41a42.6,42.6,0,0,0,9.1,26.38l-8.62,8.62a54.91,54.91,0,0,1,.29-70.35l8.61,8.61A42.57,42.57,0,0,0,12.78,56.41Z"/><path class="cls-3" d="M90.58,98.73a54.92,54.92,0,0,1-70.36-.29l8.61-8.61A42.8,42.8,0,0,0,82,90.1Z"/></svg>